<svg xmlns="http://www.w3.org/2000/svg" width="32" height="32"><g fill="#383434" fill-rule="evenodd" transform="translate(6 6)"><path fill-rule="nonzero" d="M10.707 2.3a1 1 0 0 0-1.414 0L2.299 9.292a1 1 0 0 0 0 1.414L9.293 17.7a1 1 0 0 0 1.414 0l6.994-6.994a1 1 0 0 0 0-1.414l-6.994-6.994zM12.121.884l6.994 6.994a3 3 0 0 1 0 4.242l-6.994 6.994a3 3 0 0 1-4.242 0L.885 12.12a3 3 0 0 1 0-4.242L7.88.885a3 3 0 0 1 4.242 0z"/><ellipse cx="10" cy="12.992" rx="1" ry="1"/><rect width="2" height="4.961" x="9" y="6" rx="1"/></g></svg>