<svg width="48" height="48" viewBox="0 0 48 48" fill="none" xmlns="http://www.w3.org/2000/svg">
<path fill-rule="evenodd" clip-rule="evenodd" d="M11.28 10.934C11.4546 10.8163 11.6554 10.7432 11.8648 10.7213C12.0742 10.6993 12.2858 10.7291 12.481 10.808L24.206 15.538L35.504 10.814C35.6994 10.7323 35.912 10.7001 36.1228 10.7204C36.3336 10.7406 36.5362 10.8126 36.7125 10.9299C36.8888 11.0473 37.0334 11.2063 37.1335 11.393C37.2335 11.5797 37.2859 11.7882 37.286 12V31.072C37.286 31.576 36.991 32.033 36.532 32.242L24.746 37.599C24.5816 37.6737 24.4033 37.7129 24.2227 37.7141C24.0422 37.7153 23.8634 37.6785 23.698 37.606L11.484 32.25C11.2551 32.1497 11.0603 31.9849 10.9235 31.7757C10.7868 31.5665 10.714 31.3219 10.714 31.072V12.002C10.714 11.574 10.927 11.174 11.281 10.935L11.28 10.934ZM13.286 13.905V30.232L24.205 35.021L34.715 30.244V13.93L24.71 18.115C24.398 18.245 24.047 18.248 23.733 18.121L13.286 13.905V13.905Z" fill="black"/>
</svg>
