<svg width="48" height="48" viewBox="0 0 48 48" fill="none" xmlns="http://www.w3.org/2000/svg">
<path fill-rule="evenodd" clip-rule="evenodd" d="M13.252 16.49C15.149 13.178 18.578 10.629 24.192 10.629C29.804 10.629 33.261 13.175 35.189 16.481C36.917 19.445 37.355 22.905 37.217 25.413C38.817 26.643 39.857 28.643 39.857 30.9C39.857 34.638 37.007 37.667 33.489 37.667C32.618 37.667 31.829 37.479 31.171 37.028C30.503 36.57 30.087 35.922 29.831 35.233C29.369 33.983 29.369 32.368 29.369 30.966V30.835C29.369 29.432 29.369 27.817 29.831 26.567C30.087 25.878 30.503 25.23 31.171 24.772C31.83 24.321 32.618 24.132 33.489 24.132C33.918 24.132 34.337 24.178 34.742 24.264C34.704 22.308 34.254 19.915 33.066 17.879C31.608 15.379 28.968 13.282 24.192 13.282C19.417 13.282 16.812 15.378 15.386 17.87C14.259 19.837 13.821 22.141 13.767 24.066C14.063 24.022 14.364 24 14.671 24C15.563 24 16.366 24.191 17.037 24.647C17.718 25.111 18.144 25.767 18.406 26.471C18.881 27.746 18.881 29.397 18.881 30.836V30.964C18.881 32.403 18.881 34.054 18.406 35.329C18.144 36.032 17.718 36.689 17.037 37.152C16.367 37.609 15.563 37.8 14.671 37.8C11.073 37.8 8.14301 34.719 8.14301 30.9C8.14301 28.4 9.39801 26.218 11.273 25.007C11.196 22.549 11.644 19.299 13.253 16.491L13.252 16.49ZM33.49 35.015C35.628 35.015 37.36 33.173 37.36 30.901C37.36 28.629 35.628 26.788 33.49 26.788C31.93 26.788 32.144 35.015 33.49 35.015ZM10.64 30.9C10.64 33.237 12.437 35.146 14.67 35.146C15.857 35.146 16.072 26.654 14.67 26.654C12.437 26.654 10.64 28.564 10.64 30.9Z" fill="black"/>
</svg>
