<svg width="48" height="48" viewBox="0 0 48 48" fill="none" xmlns="http://www.w3.org/2000/svg">
<path fill-rule="evenodd" clip-rule="evenodd" d="M35.817 11.838C35.7098 11.7307 35.5824 11.6455 35.4422 11.5874C35.302 11.5293 35.1518 11.4994 35 11.4994C34.8483 11.4994 34.698 11.5293 34.5578 11.5874C34.4177 11.6455 34.2903 11.7307 34.183 11.838L31.936 14.085C29.3802 13.035 26.6432 12.4965 23.88 12.5C19.1639 12.4928 14.5814 14.0658 10.864 16.968C10.404 17.326 10.38 18.004 10.793 18.416C11.163 18.786 11.753 18.808 12.167 18.488C15.5209 15.8963 19.6414 14.4934 23.88 14.5C26.165 14.5 28.357 14.9 30.39 15.632L26.638 19.383C25.729 19.2094 24.8055 19.1223 23.88 19.123C20.5862 19.1174 17.3886 20.2329 14.813 22.286C14.367 22.642 14.355 23.303 14.758 23.706C15.137 24.085 15.744 24.096 16.166 23.767C18.6359 21.8404 21.7386 20.9101 24.861 21.16L16.151 29.871C16.0437 29.9782 15.9586 30.1055 15.9005 30.2457C15.8424 30.3858 15.8125 30.536 15.8125 30.6877C15.8124 30.8393 15.8423 30.9895 15.9003 31.1297C15.9583 31.2699 16.0433 31.3972 16.1505 31.5045C16.2578 31.6118 16.3851 31.6969 16.5252 31.755C16.6653 31.8131 16.8155 31.843 16.9672 31.8431C17.1189 31.8431 17.2691 31.8133 17.4092 31.7553C17.5494 31.6973 17.6767 31.6122 17.784 31.505L20.47 28.818C21.4688 28.1171 22.6598 27.742 23.88 27.744C25.1895 27.7424 26.4626 28.1749 27.5 28.974C27.95 29.319 28.6 29.341 29 28.94C29.38 28.561 29.393 27.943 28.982 27.599C27.4629 26.3221 25.5195 25.6625 23.537 25.751L27.605 21.683C29.0301 22.1253 30.3647 22.8185 31.546 23.73C31.969 24.056 32.573 24.044 32.95 23.666C33.355 23.262 33.341 22.598 32.892 22.243C31.7645 21.3538 30.5116 20.6363 29.174 20.114L32.664 16.624C33.6763 17.146 34.6401 17.7571 35.544 18.45C35.743 18.6058 35.9916 18.6841 36.2439 18.6705C36.4962 18.6569 36.735 18.5523 36.916 18.376C37.329 17.963 37.304 17.284 36.842 16.926C35.9886 16.2649 35.086 15.6698 34.142 15.146L35.817 13.472C35.9244 13.3647 36.0095 13.2374 36.0676 13.0972C36.1257 12.957 36.1556 12.8067 36.1556 12.655C36.1556 12.5033 36.1257 12.353 36.0676 12.2128C36.0095 12.0726 35.9244 11.9453 35.817 11.838V11.838ZM25.973 34.198C25.979 34.4626 25.932 34.7258 25.8348 34.972C25.7376 35.2182 25.5923 35.4425 25.4072 35.6317C25.2222 35.821 25.0012 35.9714 24.7572 36.074C24.5132 36.1767 24.2512 36.2296 23.9865 36.2296C23.7218 36.2296 23.4598 36.1767 23.2159 36.074C22.9719 35.9714 22.7509 35.821 22.5658 35.6317C22.3808 35.4425 22.2354 35.2182 22.1382 34.972C22.0411 34.7258 21.9941 34.4626 22 34.198C22.0117 33.6789 22.2261 33.1849 22.5974 32.8219C22.9686 32.4588 23.4673 32.2556 23.9865 32.2556C24.5058 32.2556 25.0044 32.4588 25.3757 32.8219C25.747 33.1849 25.9614 33.6789 25.973 34.198V34.198Z" fill="black"/>
</svg>
