<svg width="288" height="208" viewBox="0 0 288 208" fill="none" xmlns="http://www.w3.org/2000/svg">
<g clip-path="url(#clip0_6_2)">
<path opacity="0.1" fill-rule="evenodd" clip-rule="evenodd" d="M50 130C50 127.8 94.1 126 148.5 126C202.9 126 247 127.8 247 130C247 132.2 202.9 134 148.5 134C94.1 134 50 132.2 50 130ZM81 161.5C81 159.5 92.2 158 106 158C119.8 158 131 159.6 131 161.5C131 163.5 119.8 165 106 165C92.2 165 81 163.4 81 161.5Z" fill="#16202E"/>
<path fill-rule="evenodd" clip-rule="evenodd" d="M200.1 78.3C200.1 78.3 219.4 96 231.3 100.7C233.3 101.5 263.7 94.6 263.7 94.6C263.7 94.6 264.5 93.1 265.2 92.2C266 91.1 267.6 90.2 268 89.7C268.6 88.7 270.6 87.5 270.6 87.5C270.6 87.5 271.4 87.7 270.6 88.9L263.2 101.5C263.2 101.5 240.8 112.1 226.2 112C208.3 103.1 187.2 87 187.2 87C181.8 77.1 195.7 70.8 200.2 78.3H200.1Z" fill="#FFE5BA"/>
<path fill-rule="evenodd" clip-rule="evenodd" d="M234.2 56C237.5 41.2 233.1 34.5 223 31C208.6 26 199.9 31 195.4 40C192.4 46 189.4 49.3 181.9 48.3C165.8 46.1 152.8 55.3 156.7 72.1C159 82.1 168.7 89 177.8 93.4L184.4 96.4C196.9 101.2 210 106.2 220.4 100.4C224.7 98 228.5 93.8 231.7 87.1C234.7 80.9 229.6 75.2 233.7 73.8C239.1 72.1 242.4 66.9 237.9 63.1C235.8 61.3 233.6 59.1 234.2 56.1V56Z" fill="#FF8100"/>
<path fill-rule="evenodd" clip-rule="evenodd" d="M212 56.6C208 54.3 207.4 52.2 207 47.5C199.8 48.3 203.8 55.3 199.4 60.8C195.6 65.6 182.1 65 175.4 69.8C170 73.8 170.9 86.5 179 93.3C181.2 94.5 183.5 95.4 185.6 96.3C198.4 101.3 211.6 106.3 222.2 100.3C229.6 92.1 223.9 83.2 217.7 79C209.5 73.7 213.7 70.1 217.9 69C229.4 66.2 233.3 61.4 227 39C224.3 47.5 211.3 59.6 212 56.6Z" fill="#E44B03"/>
<path fill-rule="evenodd" clip-rule="evenodd" d="M74.8 121C70.3 120 64.6 117.7 59 114.5C57.8134 113.796 56.9004 112.711 56.41 111.422C55.9196 110.132 55.8809 108.714 56.3 107.4L67.6 55.1C68.3 52.8 68.2 50.3 67.3 48.1L63 38L77.2 49.4L74.2 103.6L85 108.8L74.8 121Z" fill="#FFE5BA"/>
<path fill-rule="evenodd" clip-rule="evenodd" d="M80.8 46.5L78 50C74 47 73 45.3 65 42.4C57 36.2 52.6 32 54.4 31C63.3 31 67 37.3 72.4 39.4C79.6 42.4 81.7 44.6 80.8 46.4V46.5Z" fill="#16202E"/>
<path fill-rule="evenodd" clip-rule="evenodd" d="M66.7 114.4C62.6 96.7 45.1 72.4 30.4 48.6L23.6 44L10.1 44.8C10.1 44.8 6.50001 46.4 12.3 48.1C18.1 49.8 20.8 50.3 23.6 54.2C32.7 67.1 47.3 103.8 51.6 119C52.7323 122.902 55.3063 126.227 58.8 128.3L75.4 129L77 108.1L66.7 114.4Z" fill="#FFE5BA"/>
<path fill-rule="evenodd" clip-rule="evenodd" d="M30.1 43L31 48C28 46.2 23.4 43 12.7 47.4C-0.200027 48 -0.500026 46.4 0.199974 44.7C6.59997 41.2 14.8 41.7 20.6 41.2C26.1 40.6 29.7 41.5 30.1 43Z" fill="#16202E"/>
<path fill-rule="evenodd" clip-rule="evenodd" d="M201.5 80.4C207.7 103.4 201.5 108.2 192.5 113C183.139 120.793 172.017 126.183 160.1 128.7C127.425 130.508 94.675 130.508 62 128.7L73.4 101C91.3 95.6 106.1 92.4 116 91.3C139.4 88.7 144.4 102.5 153.5 99.7C161.2 94.3 162.5 86.6 178.2 74.4C187.3 67.4 195.8 67 195.8 67C195.8 67 200.5 76.7 201.5 80.4Z" fill="#425C7A"/>
<path fill-rule="evenodd" clip-rule="evenodd" d="M226.8 39C230.3 52.3 226 65.8 215.7 64.5C211.7 64 209.3 67.5 207.6 71.1C204.8 76.8 205.2 75.1 203.2 85C198.8 82.8 196.1 69.4 196 66.2C197.8 64.3 204.3 61.7 203.8 57.9C203.2 53.7 202.6 49.5 206.4 47.5C208.9 46.2 210.4 48.1 210.3 51C216.3 49.5 222.1 46.3 226.8 39Z" fill="#FFE5BA"/>
<path fill-rule="evenodd" clip-rule="evenodd" d="M223 51.4C223 51.6 222 51.8 221 51.7C219.9 51.7 219 51.6 219 51.4C219 51.1 220 51 221 51C222.1 51 223 51.2 223 51.4Z" fill="#16202E"/>
<path fill-rule="evenodd" clip-rule="evenodd" d="M220 49.5C220.7 48.5 221.5 48.2 222.4 48C223.4 48 224.2 48.1 225 48.8L222.5 49.1C221.7 49.1 220.9 49.3 220 49.5Z" fill="#E44B03"/>
<path fill-rule="evenodd" clip-rule="evenodd" d="M179 81C178.7 89.7 189.5 115.1 186 117.5L194 112.5L179 81Z" fill="#16202E"/>
<path fill-rule="evenodd" clip-rule="evenodd" d="M193.8 79.3C193.8 79.3 203.2 106.5 211.3 116.5C212.7 118.1 254 111.4 254 111.4L257 117.4C257 117.4 223 133.2 204 127.9C189.3 111 179.6 85.9 179.6 85.9C175.8 75.3 190.5 71.1 193.8 79.3Z" fill="#FFE5BA"/>
<path d="M262.8 103L263.3 103.5C262.6 104.2 262.6 105.8 263 110.9L263.2 113.6C263.3 116.4 263.2 118.4 262.9 120.1C262.1 123.5 264.5 125.6 269.5 126.6L273.2 127.2L274.9 127.5L276.6 127.7C280.1 128.2 282.5 128.7 284.3 129.6C286.7 130.6 288 132.2 288 134.3C288 139.9 273.2 142.8 252.9 142.8C245.2 142.8 239.4 143.5 234.7 144.8C231 145.7 228.3 146.8 224.6 148.8L223.1 149.7C216.418 153.7 208.668 155.55 200.9 155C193.472 155.401 186.122 153.326 180 149.1C180.2 149.1 177.7 147.6 177 147.1C173.1 144.7 169.8 143.1 165.2 141.8C159.5 140.2 152.2 139.4 142.9 139.4C125.2 139.4 109.4 141.1 95.9 143.9C90.3525 145.047 84.8765 146.516 79.5 148.3L79 147.7C80.4086 147.161 81.8438 146.693 83.3 146.3C102.749 141.161 122.784 138.573 142.9 138.6C152.3 138.6 159.6 139.6 165.4 141.1C170.85 142.523 175.954 145.041 180.4 148.5C186.404 152.647 193.613 154.686 200.9 154.3C208.528 154.842 216.138 153.027 222.7 149.1L224.2 148.2C228 146.2 230.7 145 234.5 144C239.3 142.7 245.2 142 252.9 142C272.6 142 287.3 139.2 287.3 134.3C287.3 131.1 283.8 129.5 276.5 128.4L274.8 128.2L273.1 128C271.827 127.84 270.56 127.64 269.3 127.4C264 126.3 261.3 123.9 262.1 119.9C262.5 118.3 262.6 116.3 262.4 113.7C262.357 111.163 262.223 108.628 262 106.1C262 104.6 262.2 103.6 262.8 103Z" fill="#16202E"/>
<path fill-rule="evenodd" clip-rule="evenodd" d="M268.6 115.5L263.6 114L270.1 115C272.3 115.7 272.8 114.6 270.4 113.7L267.2 112.7C260.9 110.8 254.2 110.5 247.7 111.8L244 112.5L246.6 118.3L250.9 119.7L261.4 120.7L264.5 122C264.9 122.1 265.9 121.7 265.4 121.2C264.9 120.8 264.3 120 263.7 119.7C263.2 119.5 263.7 119.1 264.6 119.4L268.2 121.2C269.2 121.5 272.1 120.1 271.6 119.1C271.2 118.1 269.6 115.8 268.6 115.5Z" fill="#FFE5BA"/>
<path d="M127.4 119.4C127.4 138.1 116.2 153.2 102.4 153.2V119.4H127.4Z" fill="#C4C1AD"/>
<path d="M114.9 132.3C121.804 132.3 127.4 126.659 127.4 119.7C127.4 112.741 121.804 107.1 114.9 107.1C107.996 107.1 102.4 112.741 102.4 119.7C102.4 126.659 107.996 132.3 114.9 132.3Z" fill="#C4C1AD"/>
<path d="M108.6 138.5C113.1 146.2 112 155.1 106.3 158.4L98.3 144.4L108.6 138.5Z" fill="#9E9A83"/>
<path d="M106.6 158.2C114.1 158.2 120.2 159.7 120.2 161.5H106.6V158.2Z" fill="#FF8100"/>
<path d="M106.6 158.2C112 158.2 116.3 160.2 116.3 162.6H106.6V158.2Z" fill="#D96500"/>
<path d="M107 158.2C110.2 159 112.2 161.7 111.6 164.1L105.8 162.5L107 158.2Z" fill="#FF8100"/>
<path d="M106.4 146.596C109.27 144.939 110.253 141.27 108.596 138.4C106.939 135.53 103.27 134.547 100.4 136.204C97.5303 137.861 96.547 141.53 98.2039 144.4C99.8607 147.27 103.53 148.253 106.4 146.596Z" fill="#9E9A83"/>
<path d="M106.6 162.6C107.815 162.6 108.8 161.615 108.8 160.4C108.8 159.185 107.815 158.2 106.6 158.2C105.385 158.2 104.4 159.185 104.4 160.4C104.4 161.615 105.385 162.6 106.6 162.6Z" fill="#FF8100"/>
<path d="M127.8 100.7C125.8 130.1 106.2 152.7 84.2 151.1L87.9 98L127.8 100.7Z" fill="#EBEADD"/>
<path d="M107.7 120.5C118.746 120.5 127.7 111.546 127.7 100.5C127.7 89.4543 118.746 80.5 107.7 80.5C96.6543 80.5 87.7 89.4543 87.7 100.5C87.7 111.546 96.6543 120.5 107.7 120.5Z" fill="#EBEADD"/>
<path d="M101.3 110.4C106.381 110.4 110.5 105.341 110.5 99.1C110.5 92.8592 106.381 87.8 101.3 87.8C96.219 87.8 92.1 92.8592 92.1 99.1C92.1 105.341 96.219 110.4 101.3 110.4Z" fill="white"/>
<path d="M107.7 113.2C115.653 113.2 122.1 108.32 122.1 102.3C122.1 96.2801 115.653 91.4 107.7 91.4C99.7471 91.4 93.3 96.2801 93.3 102.3C93.3 108.32 99.7471 113.2 107.7 113.2Z" fill="white"/>
<path d="M114.1 110.4C119.181 110.4 123.3 105.341 123.3 99.1C123.3 92.8592 119.181 87.8 114.1 87.8C109.019 87.8 104.9 92.8592 104.9 99.1C104.9 105.341 109.019 110.4 114.1 110.4Z" fill="white"/>
<path d="M114.7 100.5C116.246 100.5 117.5 99.2464 117.5 97.7C117.5 96.1536 116.246 94.9 114.7 94.9C113.154 94.9 111.9 96.1536 111.9 97.7C111.9 99.2464 113.154 100.5 114.7 100.5Z" fill="black"/>
<path d="M100.8 100.5C102.346 100.5 103.6 99.2464 103.6 97.7C103.6 96.1536 102.346 94.9 100.8 94.9C99.2536 94.9 98 96.1536 98 97.7C98 99.2464 99.2536 100.5 100.8 100.5Z" fill="black"/>
<path d="M105 103.6C106.5 102.1 109 102.1 110.4 103.6L107.7 106.3L105 103.6Z" fill="#FFC72C"/>
<path d="M100.4 144.6C100.4 153.5 95 160.6 88.4 160.6V144.6H100.4Z" fill="#EBEADD"/>
<path d="M88.4 160.7C95.9 160.7 102 162.2 102 164H88.4V160.7Z" fill="#FF8100"/>
<path d="M88.4 160.7C93.8 160.7 98.1 162.7 98.1 165.1H88.4V160.7Z" fill="#D96500"/>
<path d="M88.8 160.7C92 161.5 94.1 164.2 93.4 166.6L87.6 165L88.8 160.7Z" fill="#FF8100"/>
<path d="M94.4 150.7C97.7137 150.7 100.4 148.014 100.4 144.7C100.4 141.386 97.7137 138.7 94.4 138.7C91.0863 138.7 88.4 141.386 88.4 144.7C88.4 148.014 91.0863 150.7 94.4 150.7Z" fill="#EBEADD"/>
<path d="M88.4 165.1C89.615 165.1 90.6 164.115 90.6 162.9C90.6 161.685 89.615 160.7 88.4 160.7C87.185 160.7 86.2 161.685 86.2 162.9C86.2 164.115 87.185 165.1 88.4 165.1Z" fill="#FF8100"/>
<path d="M104.7 127.4C98 146 81.3 157 67.5 152L79.7 118.3L104.7 127.3V127.4Z" fill="#F7F7E9"/>
<path d="M87.5511 135.598C94.4535 138.11 102.086 134.551 104.598 127.649C107.11 120.746 103.551 113.114 96.6488 110.602C89.7464 108.09 82.1143 111.649 79.6021 118.551C77.0898 125.454 80.6487 133.086 87.5511 135.598Z" fill="#F7F7E9"/>
<path d="M109.6 122.3C109.2 123.8 108 124.8 106.9 124.5L107.6 121.8L109.6 122.3Z" fill="#DEDDD1"/>
<path d="M116.8 127.9C116.2 130.1 114.4 131.6 112.7 131.1L113.7 127.1L116.8 127.9Z" fill="#DEDDD1"/>
<path d="M118 118.4C117.5 120.1 116 121.2 114.7 120.8L115.6 117.8L117.9 118.4H118Z" fill="#DEDDD1"/>
<path d="M109.8 132.5C109.3 134.2 108.1 135.3 106.9 135L107.8 132L109.8 132.5Z" fill="#DEDDD1"/>
<path d="M108.315 123.062C108.902 123.22 109.494 122.915 109.637 122.381C109.78 121.848 109.42 121.288 108.833 121.131C108.246 120.973 107.655 121.278 107.512 121.812C107.369 122.345 107.728 122.905 108.315 123.062Z" fill="#DEDDD1"/>
<path d="M114.886 129.145C115.739 129.374 116.617 128.868 116.845 128.014C117.074 127.161 116.568 126.283 115.714 126.055C114.861 125.826 113.983 126.332 113.755 127.186C113.526 128.039 114.032 128.917 114.886 129.145Z" fill="#DEDDD1"/>
<path d="M116.389 119.459C117.03 119.631 117.688 119.251 117.859 118.611C118.031 117.97 117.651 117.312 117.011 117.141C116.37 116.969 115.712 117.349 115.541 117.989C115.369 118.63 115.749 119.288 116.389 119.459Z" fill="#DEDDD1"/>
<path d="M108.389 133.559C108.976 133.716 109.591 133.325 109.763 132.685C109.934 132.045 109.597 131.398 109.011 131.241C108.424 131.084 107.809 131.475 107.637 132.115C107.466 132.755 107.803 133.402 108.389 133.559Z" fill="#DEDDD1"/>
<path fill-rule="evenodd" clip-rule="evenodd" d="M113.8 119.1C115.984 115.131 119.152 111.79 123 109.4C126.7 106.6 128 103.8 128 97H127.2C127.2 103.6 126.1 106 122.5 108.8L121.5 109.6C120.384 110.48 119.284 111.38 118.2 112.3C116.221 114.17 114.536 116.328 113.2 118.7C102.7 136.9 119.2 144.7 106.2 161.8C104.318 164.222 101.883 166.157 99.0995 167.445C96.3158 168.732 93.2641 169.334 90.2 169.2C81.2 169.2 74 168.2 70.5 165.2C64.2 160.6 69.5 155.4 77 153.5H75.5C71.5 153.9 62.4 159.9 69.9 165.7C73.6 168.9 80.9 170 90.3 170C97.1 170 102.9 167.4 106.7 162.3C120 145.5 103.5 136.5 113.7 119.1H113.8Z" fill="#16202E"/>
<path d="M285.9 84.1L281.7 80.4C280.6 79.4 278.9 79.4 277.9 80.5L260.8 97.5C259.8 98.6 259.7 100.3 260.7 101.4L264.4 105.6C264.654 105.873 264.96 106.092 265.3 106.245C265.64 106.398 266.006 106.481 266.379 106.491C266.752 106.5 267.122 106.435 267.469 106.299C267.816 106.163 268.133 105.96 268.4 105.7L286 88.2C286.26 87.9327 286.463 87.6163 286.599 87.2692C286.735 86.9222 286.8 86.5515 286.791 86.179C286.781 85.8064 286.698 85.4395 286.545 85.0997C286.392 84.7599 286.173 84.454 285.9 84.2V84.1Z" fill="#16202E"/>
<path fill-rule="evenodd" clip-rule="evenodd" d="M262 100.4C262.2 100.7 262.8 100.4 263.4 99.9C263.9 99.4 264.2 98.7 263.9 98.4C263.6 98.2 262.9 98.4 262.4 98.9C261.9 99.5 261.6 100.1 261.9 100.4H262Z" fill="#FFD754"/>
<path fill-rule="evenodd" clip-rule="evenodd" d="M263.5 99.2C263.5 99.1 263.5 99.2 263.5 99.2L263 99.3L263.2 98.8L262.3 99.6L263 99L262.9 99.4L263.3 99.3L262.7 100L263.5 99.2ZM262.9 99.6H262.8H262.6C262.63 99.5316 262.663 99.4648 262.7 99.4L262.5 99.7L262.3 100L262.6 99.8H262.8L262.9 99.6Z" fill="#B34D00"/>
<path d="M277.6 81.8C277.781 81.6451 278.012 81.5599 278.25 81.5599C278.488 81.5599 278.719 81.6451 278.9 81.8L283.3 85.4C283.8 85.8 283.8 86.4 283.3 86.9L269.5 100.7C269.313 100.883 269.062 100.986 268.8 100.986C268.538 100.986 268.287 100.883 268.1 100.7L264.1 96.7C263.917 96.5131 263.814 96.2618 263.814 96C263.814 95.7382 263.917 95.4869 264.1 95.3L277.6 81.8Z" fill="#FAFAFA"/>
<path fill-rule="evenodd" clip-rule="evenodd" d="M277.3 83C277.5 82.8 277.9 82.8 278.3 83L281.5 85.7C281.566 85.7657 281.618 85.8436 281.653 85.9294C281.689 86.0152 281.707 86.1071 281.707 86.2C281.707 86.2929 281.689 86.3848 281.653 86.4706C281.618 86.5564 281.566 86.6343 281.5 86.7C281.434 86.7657 281.356 86.8177 281.271 86.8533C281.185 86.8888 281.093 86.9071 281 86.9071C280.907 86.9071 280.815 86.8888 280.729 86.8533C280.644 86.8177 280.566 86.7657 280.5 86.7L277.3 84.1C277.233 84.0348 277.181 83.957 277.145 83.8712C277.108 83.7853 277.09 83.6931 277.09 83.6C277.09 83.5069 277.108 83.4147 277.145 83.3288C277.181 83.243 277.233 83.1652 277.3 83.1V83ZM275.3 85C275.6 84.8 276 84.8 276.3 85L278.3 86.8C278.7 87.1 278.7 87.6 278.4 87.8C278.2 88.1 277.8 88.1 277.4 87.9L275.4 86.1C275.333 86.0348 275.281 85.957 275.245 85.8712C275.208 85.7853 275.19 85.6931 275.19 85.6C275.19 85.5069 275.208 85.4147 275.245 85.3288C275.281 85.243 275.333 85.1652 275.4 85.1L275.3 85ZM274.3 87C274.234 86.9343 274.156 86.8823 274.071 86.8467C273.985 86.8112 273.893 86.7929 273.8 86.7929C273.707 86.7929 273.615 86.8112 273.529 86.8467C273.444 86.8823 273.366 86.9343 273.3 87C273.234 87.0657 273.182 87.1436 273.147 87.2294C273.111 87.3152 273.093 87.4071 273.093 87.5C273.093 87.5929 273.111 87.6848 273.147 87.7706C273.182 87.8564 273.234 87.9343 273.3 88L276 90.3C276.137 90.3664 276.291 90.3866 276.44 90.3575C276.589 90.3284 276.725 90.2516 276.826 90.1387C276.928 90.0258 276.99 89.883 277.003 89.7317C277.017 89.5804 276.98 89.4289 276.9 89.3L274.3 87ZM271.3 89C271.6 88.8 272 88.8 272.3 89L275.3 91.9C275.398 91.9474 275.483 92.0169 275.549 92.1029C275.615 92.1888 275.66 92.289 275.681 92.3955C275.702 92.5019 275.698 92.6118 275.669 92.7163C275.64 92.8208 275.587 92.9172 275.514 92.9978C275.442 93.0784 275.351 93.1411 275.25 93.1809C275.15 93.2206 275.041 93.2364 274.933 93.2269C274.825 93.2174 274.72 93.1829 274.628 93.1262C274.535 93.0695 274.457 92.992 274.4 92.9L271.4 90C271.333 89.9348 271.281 89.857 271.245 89.7712C271.208 89.6853 271.19 89.5931 271.19 89.5C271.19 89.4069 271.208 89.3147 271.245 89.2288C271.281 89.143 271.333 89.0652 271.4 89H271.3ZM270.3 91C270.167 90.8674 269.988 90.7929 269.8 90.7929C269.612 90.7929 269.433 90.8674 269.3 91C269.167 91.1326 269.093 91.3125 269.093 91.5C269.093 91.6875 269.167 91.8674 269.3 92L271.8 94.5C271.933 94.6326 272.112 94.7071 272.3 94.7071C272.488 94.7071 272.667 94.6326 272.8 94.5C272.933 94.3674 273.007 94.1875 273.007 94C273.007 93.8125 272.933 93.6326 272.8 93.5L270.3 91ZM267.3 93C267.6 92.7 268.1 92.7 268.3 93L271.3 96C271.366 96.0657 271.418 96.1436 271.453 96.2294C271.489 96.3152 271.507 96.4071 271.507 96.5C271.507 96.5929 271.489 96.6848 271.453 96.7706C271.418 96.8564 271.366 96.9343 271.3 97C271.234 97.0657 271.156 97.1178 271.071 97.1533C270.985 97.1888 270.893 97.2071 270.8 97.2071C270.707 97.2071 270.615 97.1888 270.529 97.1533C270.444 97.1178 270.366 97.0657 270.3 97L267.3 94C267.233 93.9348 267.181 93.857 267.145 93.7712C267.108 93.6853 267.09 93.5931 267.09 93.5C267.09 93.4069 267.108 93.3147 267.145 93.2288C267.181 93.143 267.233 93.0652 267.3 93ZM266.3 95C266.167 94.8674 265.988 94.7929 265.8 94.7929C265.612 94.7929 265.433 94.8674 265.3 95C265.167 95.1326 265.093 95.3125 265.093 95.5C265.093 95.6875 265.167 95.8674 265.3 96L266.3 97C266.433 97.1326 266.612 97.2071 266.8 97.2071C266.988 97.2071 267.167 97.1326 267.3 97C267.433 96.8674 267.507 96.6875 267.507 96.5C267.507 96.3125 267.433 96.1326 267.3 96L266.3 95Z" fill="#E8E8E8"/>
<path d="M283.677 88.5081L283.607 88.4374C283.489 88.3202 283.299 88.3202 283.182 88.4374L281.132 90.488C281.015 90.6051 281.015 90.7951 281.132 90.9122L281.202 90.9829C281.32 91.1001 281.51 91.1001 281.627 90.9829L283.677 88.9323C283.794 88.8152 283.794 88.6252 283.677 88.5081Z" fill="#293C54"/>
<path d="M285.187 87.0624L285.117 86.9917C285 86.8746 284.81 86.8746 284.692 86.9917L284.127 87.5574C284.01 87.6746 284.01 87.8645 284.127 87.9817L284.197 88.0524C284.315 88.1696 284.505 88.1696 284.622 88.0524L285.187 87.4867C285.305 87.3696 285.305 87.1796 285.187 87.0624Z" fill="#293C54"/>
<path d="M106.5 80C124.7 79 127.2 92 127.2 92H129C129 92 124.9 77.2 106.2 78.3C87.5 79.3 85.9 94.4 85.9 94.4H87.6C87.6 94.4 88.3 81.1 106.6 80H106.5Z" fill="#16202E"/>
<path d="M127.6 104.5C129.6 104.4 131 101.1 130.8 97.2C130.6 93.2 128.8 90.2 126.8 90.2C124.8 90.4 123.5 93.6 123.7 97.6C123.9 101.5 125.7 104.6 127.7 104.5H127.6ZM88.3 106.7C90.3 106.6 91.6 103.3 91.4 99.4C91.2 95.4 89.4 92.4 87.4 92.4C85.4 92.6 84.1 95.9 84.3 99.8C84.5 103.8 86.3 106.8 88.3 106.8V106.7Z" fill="#16202E"/>
<path d="M86.2 105C87.6 104.9 87 94.4 85.6 94.5C84.3 94.5 83.4 96.9 83.6 99.8C83.7 102.8 84.9 105 86.2 105Z" fill="#293C54"/>
<path d="M84.6 102.4C85.1 102.4 85.5 101.2 85.4 99.7C85.4 98.3 84.8 97.1 84.4 97.2C83.8 97.2 83.4 98.4 83.5 99.8C83.6 101.3 84.1 102.4 84.6 102.4Z" fill="#5F80A1"/>
<path d="M129.8 102.5C131.2 102.4 132.1 100 131.9 97.1C131.8 94.2 130.6 91.9 129.2 92C127.9 92 128.5 102.5 129.8 102.5Z" fill="#293C54"/>
<path d="M131.1 99.8C131.7 99.8 132.1 98.5 131.9 97.1C131.9 95.6 131.4 94.5 130.9 94.5C130.3 94.5 129.9 95.8 130.1 97.2C130.1 98.6 130.6 99.8 131.1 99.8Z" fill="#5F80A1"/>
</g>
<defs>
<clipPath id="clip0_6_2">
<rect width="288" height="208" fill="white"/>
</clipPath>
</defs>
</svg>
