<svg width="48" height="48" viewBox="0 0 48 48" fill="none" xmlns="http://www.w3.org/2000/svg">
<path fill-rule="evenodd" clip-rule="evenodd" d="M16.159 13.342C15.981 13.1287 15.7605 12.9549 15.5116 12.8315C15.2627 12.7082 14.9909 12.638 14.7134 12.6255C14.4359 12.6131 14.1588 12.6585 13.8998 12.759C13.6409 12.8595 13.4057 13.0129 13.2093 13.2093C13.0128 13.4057 12.8595 13.6409 12.759 13.8999C12.6585 14.1588 12.613 14.4359 12.6255 14.7134C12.638 14.9909 12.7081 15.2628 12.8315 15.5117C12.9549 15.7606 13.1287 15.981 13.342 16.159C13.9978 16.7127 14.4428 17.4756 14.602 18.319C14.757 19.157 14.63 20.269 13.774 21.126L11.793 23.106C11.7 23.1989 11.6262 23.3092 11.5759 23.4306C11.5256 23.552 11.4997 23.6821 11.4997 23.8135C11.4997 23.9449 11.5256 24.0751 11.5759 24.1965C11.6262 24.3178 11.7 24.4281 11.793 24.521L23.107 35.834C23.2945 36.0215 23.5488 36.1268 23.814 36.1268C24.0791 36.1268 24.3335 36.0215 24.521 35.834L35.834 24.521C36.0215 24.3335 36.1268 24.0792 36.1268 23.814C36.1268 23.5488 36.0215 23.2945 35.834 23.107L34.42 21.692C33.2917 22.8021 31.7704 23.4214 30.1876 23.4149C28.6048 23.4085 27.0886 22.7768 25.9694 21.6576C24.8502 20.5384 24.2185 19.0222 24.2121 17.4394C24.2056 15.8566 24.8249 14.3353 25.935 13.207L24.521 11.793C24.3335 11.6055 24.0791 11.5002 23.814 11.5002C23.5488 11.5002 23.2945 11.6055 23.107 11.793L21.126 13.773C20.269 14.63 19.156 14.757 18.319 14.602C17.4755 14.4428 16.7127 13.9978 16.159 13.342V13.342ZM17.693 12.059C17.337 11.6325 16.8961 11.2848 16.3983 11.0381C15.9005 10.7913 15.3568 10.651 14.8018 10.6261C14.2468 10.6011 13.6926 10.692 13.1747 10.893C12.6568 11.094 12.1864 11.4007 11.7936 11.7936C11.4007 12.1864 11.094 12.6568 10.893 13.1747C10.692 13.6927 10.6011 14.2468 10.626 14.8018C10.651 15.3568 10.7913 15.9005 11.038 16.3983C11.2847 16.8961 11.6324 17.337 12.059 17.693C12.649 18.187 12.904 19.167 12.359 19.712L10.379 21.692C10.1004 21.9706 9.87933 22.3013 9.72853 22.6653C9.57774 23.0294 9.50012 23.4195 9.50012 23.8135C9.50012 24.2075 9.57774 24.5977 9.72853 24.9617C9.87933 25.3257 10.1004 25.6564 10.379 25.935L21.692 37.249C21.9706 37.5276 22.3013 37.7487 22.6653 37.8995C23.0293 38.0503 23.4195 38.1279 23.8135 38.1279C24.2075 38.1279 24.5976 38.0503 24.9616 37.8995C25.3257 37.7487 25.6564 37.5276 25.935 37.249L37.249 25.935C37.5276 25.6564 37.7486 25.3257 37.8994 24.9617C38.0502 24.5977 38.1278 24.2075 38.1278 23.8135C38.1278 23.4195 38.0502 23.0294 37.8994 22.6653C37.7486 22.3013 37.5276 21.9706 37.249 21.692L35.268 19.712C34.723 19.167 33.743 19.422 33.249 20.012C32.893 20.4385 32.4521 20.7863 31.9543 21.033C31.4565 21.2797 30.9128 21.42 30.3578 21.445C29.8028 21.4699 29.2486 21.379 28.7307 21.178C28.2128 20.977 27.7424 20.6703 27.3496 20.2774C26.9567 19.8846 26.65 19.4142 26.449 18.8963C26.248 18.3784 26.1571 17.8242 26.182 17.2692C26.207 16.7142 26.3473 16.1705 26.594 15.6727C26.8407 15.1749 27.1884 14.734 27.615 14.378C28.206 13.884 28.46 12.904 27.915 12.36L25.935 10.379C25.6564 10.1004 25.3257 9.87936 24.9616 9.72856C24.5976 9.57777 24.2075 9.50015 23.8135 9.50015C23.4195 9.50015 23.0293 9.57777 22.6653 9.72856C22.3013 9.87936 21.9706 10.1004 21.692 10.379L19.712 12.359C19.167 12.904 18.187 12.649 17.693 12.059V12.059Z" fill="black"/>
</svg>
