<svg width="10" height="16" viewBox="0 0 10 16" fill="none" xmlns="http://www.w3.org/2000/svg">
<path d="M6.797 8.032L1.233 13.596C1.02348 13.8051 0.905613 14.0889 0.905332 14.3849C0.905051 14.681 1.02238 14.965 1.2315 15.1745C1.44062 15.384 1.72441 15.5019 2.02044 15.5022C2.31647 15.5024 2.60048 15.3851 2.81 15.176L10 8.012L8.498 6.552L2.748 0.825C2.53848 0.615877 2.25447 0.498551 1.95844 0.498832C1.66241 0.499114 1.37862 0.616979 1.1695 0.8265C0.960377 1.03602 0.843051 1.32003 0.843332 1.61606C0.843613 1.91209 0.961479 2.19588 1.171 2.405L6.797 8.032V8.032Z" fill="#BE5B04"/>
</svg>
