<svg width="10" height="16" viewBox="0 0 10 16" fill="none" xmlns="http://www.w3.org/2000/svg">
<path d="M3.203 8.032L8.767 13.596C8.97652 13.8051 9.09439 14.0889 9.09467 14.3849C9.09495 14.681 8.97762 14.965 8.7685 15.1745C8.55938 15.384 8.27559 15.5019 7.97956 15.5022C7.68353 15.5024 7.39952 15.3851 7.19 15.176L0 8.012L1.502 6.551L7.252 0.825C7.46152 0.615877 7.74553 0.49855 8.04156 0.498832C8.33759 0.499113 8.62138 0.616979 8.8305 0.8265C9.03962 1.03602 9.15695 1.32003 9.15667 1.61606C9.15639 1.91209 9.03852 2.19588 8.829 2.405L3.203 8.032Z" fill="#BE5B04"/>
</svg>
