<svg width="48" height="48" viewBox="0 0 48 48" fill="none" xmlns="http://www.w3.org/2000/svg">
<path fill-rule="evenodd" clip-rule="evenodd" d="M19.96 17.538C19.9011 17.7186 19.7866 17.8759 19.6328 17.9875C19.4791 18.099 19.294 18.1591 19.104 18.159H8.79602C7.92402 18.159 7.56202 19.275 8.26702 19.788L16.607 25.846C16.7608 25.9579 16.8751 26.1156 16.9337 26.2965C16.9923 26.4774 16.992 26.6722 16.933 26.853L13.748 36.656C13.478 37.486 14.428 38.175 15.133 37.662L23.473 31.603C23.6267 31.4915 23.8117 31.4315 24.0015 31.4315C24.1914 31.4315 24.3764 31.4915 24.53 31.603L32.87 37.663C33.575 38.175 34.524 37.485 34.255 36.656L31.069 26.853C31.0101 26.6721 31.01 26.4772 31.0688 26.2963C31.1275 26.1154 31.2421 25.9578 31.396 25.846L39.736 19.788C40.441 19.275 40.078 18.159 39.206 18.159H28.898C28.7082 18.1589 28.5233 18.0987 28.3698 17.9872C28.2162 17.8757 28.1019 17.7184 28.043 17.538L24.857 7.73399C24.587 6.90499 23.415 6.90499 23.145 7.73399L19.96 17.538V17.538ZM24.001 11.896L21.957 18.186C21.7613 18.7885 21.3798 19.3136 20.8673 19.686C20.3548 20.0584 19.7375 20.259 19.104 20.259H12.49L17.84 24.147C18.3528 24.5194 18.7344 25.0446 18.9302 25.6474C19.1261 26.2501 19.126 26.8993 18.93 27.502L16.887 33.792L22.238 29.904C22.7506 29.5315 23.3679 29.3309 24.0015 29.3309C24.6351 29.3309 25.2524 29.5315 25.765 29.904L31.116 33.792L29.072 27.502C28.8761 26.8993 28.876 26.2501 29.0718 25.6474C29.2676 25.0446 29.6493 24.5194 30.162 24.147L35.513 20.259H28.9C28.2663 20.2592 27.6489 20.0587 27.1362 19.6863C26.6234 19.3139 26.2418 18.7887 26.046 18.186L24.002 11.896H24.001Z" fill="black"/>
</svg>
